<?xml version="1.0" encoding="utf-8"?>
<!-- Generator: Adobe Illustrator 28.0.0, SVG Export Plug-In . SVG Version: 6.00 Build 0)  -->
<svg version="1.1" id="Layer_1" xmlns="http://www.w3.org/2000/svg" xmlns:xlink="http://www.w3.org/1999/xlink" x="0px" y="0px"
	 viewBox="0 0 100 100" style="enable-background:new 0 0 100 100;" xml:space="preserve">
<style type="text/css">
	.st0{fill:#5A463A;}
</style>
<g>
	<path class="st0" d="M34.97,88.97c-5.73,0-10.39-4.66-10.39-10.39c0-5.73,4.66-10.39,10.39-10.39c5.73,0,10.39,4.66,10.39,10.39
		C45.36,84.31,40.7,88.97,34.97,88.97z"/>
	<path class="st0" d="M81.61,88.97c-5.73,0-10.39-4.66-10.39-10.39c0-5.73,4.66-10.39,10.39-10.39c5.73,0,10.39,4.66,10.39,10.39
		C91.99,84.31,87.33,88.97,81.61,88.97z"/>
	<path class="st0" d="M81.61,80.19H37.29c-1.24,0-2.42-0.6-3.16-1.6c-0.74-1.01-0.95-2.32-0.57-3.5l5.95-14.63
		c0.33-0.82,1.27-1.21,2.09-0.88c0.82,0.33,1.21,1.27,0.88,2.09l-5.91,14.51c-0.03,0.1,0.01,0.34,0.14,0.52
		c0.13,0.18,0.35,0.29,0.57,0.29h44.32c0.88,0,1.6,0.72,1.6,1.6C83.21,79.47,82.49,80.19,81.61,80.19z"/>
	<g>
		<path class="st0" d="M95.28,21.96c-0.73-1-1.91-1.6-3.16-1.6l-66.75,0.02l-3.14-7.19c-0.26-0.58-0.83-0.96-1.47-0.96H5.93
			c-0.88,0-1.6,0.72-1.6,1.6c0,0.88,0.72,1.6,1.6,1.6h13.79L39.3,60.29c0.62,1.44,2.03,2.37,3.59,2.37h38.35
			c1.71,0,3.21-1.1,3.73-2.74l10.88-34.47C96.23,24.27,96.01,22.96,95.28,21.96z M77.97,53.39H45.23c-0.88,0-1.6-0.72-1.6-1.6
			c0-0.88,0.72-1.6,1.6-1.6h32.75c0.88,0,1.6,0.72,1.6,1.6C79.57,52.67,78.86,53.39,77.97,53.39z M80.77,43.28H42.43
			c-0.88,0-1.6-0.72-1.6-1.6c0-0.88,0.72-1.6,1.6-1.6h38.34c0.88,0,1.6,0.72,1.6,1.6C82.37,42.56,81.65,43.28,80.77,43.28z
			 M83.06,33.16H40.14c-0.88,0-1.6-0.72-1.6-1.6c0-0.88,0.72-1.6,1.6-1.6h42.92c0.88,0,1.6,0.72,1.6,1.6
			C84.66,32.44,83.95,33.16,83.06,33.16z"/>
	</g>
	<path class="st0" d="M8.95,13.95c0,1.39-1.13,2.53-2.53,2.53c-1.39,0-2.53-1.13-2.53-2.53c0-1.4,1.13-2.53,2.53-2.53
		C7.82,11.42,8.95,12.55,8.95,13.95z"/>
</g>
</svg>
