<?xml version="1.0" encoding="utf-8"?>
<!-- Generator: Adobe Illustrator 28.0.0, SVG Export Plug-In . SVG Version: 6.00 Build 0)  -->
<svg version="1.1" id="Layer_1" xmlns="http://www.w3.org/2000/svg" xmlns:xlink="http://www.w3.org/1999/xlink" x="0px" y="0px"
	 viewBox="0 0 100 100" style="enable-background:new 0 0 100 100;" xml:space="preserve">
<style type="text/css">
	.st0{fill:#5A463A;}
</style>
<g>
	<path class="st0" d="M73.42,38.1c-0.13-2.81-0.59-4.33-0.99-5.35c-0.52-1.34-1.14-2.3-2.15-3.3c-1.01-1.01-1.97-1.63-3.31-2.16
		c-1.01-0.39-2.54-0.86-5.34-0.99c-3.04-0.14-3.95-0.16-11.63-0.16s-8.59,0.02-11.63,0.16c-2.8,0.13-4.33,0.6-5.34,0.99
		c-1.34,0.53-2.3,1.15-3.31,2.16c-1.01,1-1.63,1.96-2.15,3.3c-0.4,1.02-0.86,2.54-0.99,5.35c-0.14,3.03-0.17,3.94-0.17,11.62
		c0,7.69,0.03,8.6,0.17,11.63c0.13,2.81,0.59,4.33,0.99,5.35c0.52,1.34,1.14,2.3,2.15,3.3c1.01,1.01,1.97,1.63,3.31,2.16
		c1.01,0.39,2.54,0.86,5.34,0.99c3.04,0.14,3.95,0.16,11.63,0.16s8.59-0.02,11.63-0.16c2.8-0.13,4.33-0.6,5.34-0.99
		c1.34-0.53,2.3-1.15,3.31-2.16c1.01-1,1.63-1.96,2.15-3.3c0.4-1.02,0.86-2.54,0.99-5.35c0.14-3.03,0.17-3.94,0.17-11.63
		C73.59,42.04,73.56,41.13,73.42,38.1z M50,64.5c-8.16,0-14.78-6.61-14.78-14.78c0-8.16,6.62-14.77,14.78-14.77
		s14.78,6.61,14.78,14.77C64.78,57.89,58.16,64.5,50,64.5z M65.36,37.82c-1.91,0-3.45-1.55-3.45-3.45c0-1.91,1.54-3.46,3.45-3.46
		c1.91,0,3.45,1.55,3.45,3.46C68.81,36.27,67.27,37.82,65.36,37.82z M50,40.13c-5.3,0-9.59,4.3-9.59,9.59c0,5.3,4.29,9.6,9.59,9.6
		s9.59-4.3,9.59-9.6C59.59,44.43,55.3,40.13,50,40.13z"/>
	<path class="st0" d="M50,4.02c-25.24,0-45.7,20.47-45.7,45.7c0,25.24,20.46,45.71,45.7,45.71s45.7-20.47,45.7-45.71
		C95.7,24.49,75.24,4.02,50,4.02z M78.6,61.59c-0.14,3.06-0.62,5.15-1.34,6.98c-0.73,1.9-1.72,3.5-3.32,5.1
		c-1.59,1.6-3.2,2.58-5.09,3.32c-1.83,0.71-3.92,1.2-6.99,1.34C58.79,78.47,57.81,78.5,50,78.5s-8.79-0.03-11.86-0.17
		c-3.07-0.14-5.16-0.63-6.99-1.34c-1.89-0.74-3.5-1.72-5.09-3.32c-1.6-1.6-2.59-3.2-3.32-5.1c-0.72-1.83-1.2-3.92-1.34-6.98
		c-0.14-3.07-0.17-4.05-0.17-11.87c0-7.81,0.03-8.79,0.17-11.86c0.14-3.06,0.62-5.15,1.34-6.98c0.73-1.9,1.72-3.5,3.32-5.1
		c1.59-1.6,3.2-2.58,5.09-3.32c1.83-0.71,3.92-1.2,6.99-1.34s4.05-0.17,11.86-0.17s8.79,0.03,11.86,0.17s5.16,0.63,6.99,1.34
		c1.89,0.74,3.5,1.72,5.09,3.32c1.6,1.6,2.59,3.2,3.32,5.1c0.72,1.83,1.2,3.92,1.34,6.98c0.14,3.07,0.17,4.05,0.17,11.86
		C78.77,57.54,78.74,58.52,78.6,61.59z"/>
</g>
</svg>
