<?xml version="1.0" encoding="utf-8"?>
<!-- Generator: Adobe Illustrator 28.0.0, SVG Export Plug-In . SVG Version: 6.00 Build 0)  -->
<svg version="1.1" id="Layer_1" xmlns="http://www.w3.org/2000/svg" xmlns:xlink="http://www.w3.org/1999/xlink" x="0px" y="0px"
	 viewBox="0 0 100 100" style="enable-background:new 0 0 100 100;" xml:space="preserve">
<style type="text/css">
	.st0{fill-rule:evenodd;clip-rule:evenodd;fill:#5A463A;}
</style>
<g>
	<path class="st0" d="M50,4.08c-25.21,0-45.64,20.44-45.64,45.64c0,25.21,20.43,45.65,45.64,45.65s45.64-20.44,45.64-45.65
		C95.64,24.52,75.21,4.08,50,4.08z M75.23,39.96c0.02,0.52,0.03,1.04,0.03,1.57c0,16.01-12.19,34.48-34.48,34.48
		c-6.85,0-13.22-2-18.58-5.44c0.95,0.11,1.91,0.17,2.89,0.17c5.68,0,10.9-1.94,15.05-5.19c-5.3-0.1-9.78-3.6-11.32-8.42
		c0.74,0.14,1.5,0.22,2.28,0.22c1.11,0,2.18-0.15,3.19-0.43c-5.54-1.11-9.72-6.01-9.72-11.88v-0.15c1.64,0.9,3.5,1.45,5.49,1.51
		c-3.25-2.17-5.39-5.88-5.39-10.09c0-2.22,0.6-4.3,1.64-6.09c5.98,7.34,14.91,12.16,24.98,12.66c-0.21-0.88-0.31-1.81-0.31-2.76
		C50.98,33.43,56.41,28,63.1,28c3.48,0,6.63,1.48,8.85,3.83c2.76-0.54,5.35-1.55,7.69-2.94c-0.9,2.83-2.83,5.2-5.33,6.7
		c2.45-0.29,4.79-0.94,6.96-1.9C79.65,36.12,77.59,38.25,75.23,39.96z"/>
</g>
</svg>
